<?xml version="1.0" standalone="no"?>
<!DOCTYPE svg PUBLIC "-//W3C//DTD SVG 20010904//EN"
 "http://www.w3.org/TR/2001/REC-SVG-20010904/DTD/svg10.dtd">
<svg version="1.0" xmlns="http://www.w3.org/2000/svg"
 width="100.000000pt" height="100.000000pt" viewBox="0 0 100.000000 100.000000"
 preserveAspectRatio="xMidYMid meet">

<g transform="translate(0.000000,100.000000) scale(0.100000,-0.100000)"
fill="#000000" stroke="none">
<path d="M340 800 c-16 -16 -20 -33 -20 -90 l0 -70 -140 0 c-193 0 -180 17
-180 -244 0 -177 2 -205 16 -210 20 -8 948 -8 968 0 14 5 16 30 16 170 0 215
9 204 -180 204 l-140 0 0 110 c0 152 3 150 -180 150 -127 0 -142 -2 -160 -20z
m180 -160 c0 -64 -3 -80 -15 -80 -12 0 -15 13 -15 55 0 42 -3 55 -15 55 -20 0
-19 9 3 31 34 35 42 24 42 -61z m-290 -119 c15 -29 13 -37 -21 -76 l-31 -35
31 0 c21 0 31 -5 31 -15 0 -11 -12 -15 -50 -15 -62 0 -65 14 -15 69 23 25 33
45 29 55 -8 20 -23 21 -30 1 -7 -18 -34 -20 -34 -2 0 38 71 52 90 18z m624
-83 c8 -13 8 -23 -1 -38 -8 -12 -9 -21 -3 -25 14 -9 12 -49 -2 -63 -19 -19
-66 -15 -78 8 -8 15 -8 20 3 20 7 0 18 -5 24 -11 6 -6 16 -8 22 -5 16 11 13
34 -6 44 -16 9 -16 11 0 27 20 19 21 31 6 41 -7 4 -16 -1 -21 -10 -11 -19 -28
-21 -28 -3 0 37 63 48 84 15z"/>
</g>
</svg>
