<?xml version="1.0" standalone="no"?>
<!DOCTYPE svg PUBLIC "-//W3C//DTD SVG 20010904//EN"
 "http://www.w3.org/TR/2001/REC-SVG-20010904/DTD/svg10.dtd">
<svg version="1.0" xmlns="http://www.w3.org/2000/svg"
 width="96.000000pt" height="96.000000pt" viewBox="0 0 96.000000 96.000000"
 preserveAspectRatio="xMidYMid meet">

<g transform="translate(0.000000,96.000000) scale(0.100000,-0.100000)"
fill="#000000" stroke="none">
<path d="M536 846 c-197 -28 -220 -34 -237 -55 -17 -21 -19 -42 -19 -242 l0
-219 -30 0 c-83 0 -170 -85 -170 -166 0 -40 51 -84 96 -84 51 0 119 35 152 78
27 35 27 37 32 231 l5 195 200 27 c110 15 208 28 218 28 15 1 17 -12 17 -134
l0 -135 -30 0 c-83 0 -170 -85 -170 -166 0 -40 51 -84 97 -84 54 1 116 32 149
76 l29 37 3 291 c3 309 1 324 -45 345 -32 15 -44 14 -297 -23z"/>
</g>
</svg>
