<?xml version="1.0" standalone="no"?>
<!DOCTYPE svg PUBLIC "-//W3C//DTD SVG 20010904//EN"
 "http://www.w3.org/TR/2001/REC-SVG-20010904/DTD/svg10.dtd">
<svg version="1.0" xmlns="http://www.w3.org/2000/svg"
 width="96.000000pt" height="96.000000pt" viewBox="0 0 96.000000 96.000000"
 preserveAspectRatio="xMidYMid meet">

<g transform="translate(0.000000,96.000000) scale(0.100000,-0.100000)"
fill="#000000" stroke="none">
<path d="M386 870 c-63 -16 -153 -70 -197 -117 -22 -24 -55 -74 -72 -111 -29
-61 -32 -76 -32 -163 0 -90 2 -99 37 -171 45 -91 103 -147 196 -191 61 -29 76
-32 162 -32 86 0 101 3 162 32 93 44 151 100 196 191 35 72 37 81 37 172 0 91
-2 100 -37 172 -68 136 -188 217 -336 224 -42 2 -94 -1 -116 -6z m157 -124
c43 -17 85 -68 93 -111 10 -53 -5 -95 -51 -144 -48 -52 -65 -81 -65 -110 0
-18 -6 -21 -40 -21 -36 0 -40 3 -40 24 0 42 19 78 71 133 37 39 49 59 49 83 0
41 -39 80 -80 80 -33 0 -80 -38 -80 -65 0 -11 -11 -15 -40 -15 -44 0 -48 8
-29 57 31 84 128 125 212 89z m-23 -506 l0 -40 -40 0 -40 0 0 40 0 40 40 0 40
0 0 -40z"/>
</g>
</svg>
