<?xml version="1.0" standalone="no"?>
<!DOCTYPE svg PUBLIC "-//W3C//DTD SVG 20010904//EN"
 "http://www.w3.org/TR/2001/REC-SVG-20010904/DTD/svg10.dtd">
<svg version="1.0" xmlns="http://www.w3.org/2000/svg"
 width="96.000000pt" height="96.000000pt" viewBox="0 0 96.000000 96.000000"
 preserveAspectRatio="xMidYMid meet">

<g transform="translate(0.000000,96.000000) scale(0.100000,-0.100000)"
fill="#000000" stroke="none">
<path d="M385 866 c-107 -34 -186 -102 -232 -201 -28 -59 -28 -63 -31 -277
l-3 -218 25 -25 c22 -22 33 -25 101 -25 l75 0 0 140 0 140 -60 0 -60 0 0 78
c0 115 21 174 84 238 113 112 279 113 390 1 64 -64 86 -126 86 -238 l0 -79
-60 0 -60 0 0 -140 0 -140 75 0 c68 0 79 3 101 25 l25 25 -3 218 c-3 214 -3
218 -31 277 -30 65 -81 124 -138 160 -78 50 -199 68 -284 41z"/>
</g>
</svg>
