<?xml version="1.0" standalone="no"?>
<!DOCTYPE svg PUBLIC "-//W3C//DTD SVG 20010904//EN"
 "http://www.w3.org/TR/2001/REC-SVG-20010904/DTD/svg10.dtd">
<svg version="1.0" xmlns="http://www.w3.org/2000/svg"
 width="96.000000pt" height="96.000000pt" viewBox="0 0 96.000000 96.000000"
 preserveAspectRatio="xMidYMid meet">

<g transform="translate(0.000000,96.000000) scale(0.100000,-0.100000)"
fill="#000000" stroke="none">
<path d="M185 855 l-25 -24 0 -351 0 -351 25 -24 24 -25 271 0 271 0 24 25 25
24 0 258 0 258 -118 118 -117 117 -178 0 c-176 0 -178 0 -202 -25z m455 -150
l105 -105 -113 0 -112 0 0 105 c0 58 3 105 8 105 4 0 54 -47 112 -105z m-40
-225 l0 -40 -40 0 -40 0 0 -95 c0 -88 -2 -98 -25 -120 -49 -50 -135 -15 -135
55 0 33 38 80 65 80 12 0 15 15 15 80 l0 80 80 0 80 0 0 -40z"/>
</g>
</svg>
