<?xml version="1.0" standalone="no"?>
<!DOCTYPE svg PUBLIC "-//W3C//DTD SVG 20010904//EN"
 "http://www.w3.org/TR/2001/REC-SVG-20010904/DTD/svg10.dtd">
<svg version="1.0" xmlns="http://www.w3.org/2000/svg"
 width="96.000000pt" height="96.000000pt" viewBox="0 0 96.000000 96.000000"
 preserveAspectRatio="xMidYMid meet">

<g transform="translate(0.000000,96.000000) scale(0.100000,-0.100000)"
fill="#000000" stroke="none">
<path d="M617 712 c-129 -130 -141 -149 -113 -188 14 -18 22 -12 143 109 l128
127 53 0 52 0 0 40 0 40 -68 0 -67 0 -128 -128z"/>
<path d="M351 644 c-18 -15 -36 -43 -43 -67 -16 -56 -22 -63 -64 -70 -86 -14
-164 -92 -164 -164 1 -68 71 -167 144 -202 52 -26 98 -26 152 -2 51 23 78 61
96 131 12 51 15 55 52 65 40 12 83 55 72 73 -3 5 -26 15 -50 21 -73 18 -94 49
-103 149 -3 37 -10 73 -16 80 -15 19 -43 14 -76 -14z m49 -209 c32 -33 33 -36
17 -52 -16 -17 -19 -15 -54 19 -31 31 -35 39 -24 52 18 22 23 21 61 -19z m-80
-80 c32 -33 33 -36 17 -52 -16 -17 -19 -15 -54 19 -31 31 -35 39 -24 52 18 22
23 21 61 -19z"/>
</g>
</svg>
